<?xml version="1.0" encoding="UTF-8" standalone="no"?>
<!-- Created with Inkscape (http://www.inkscape.org/) -->

<svg
   xmlns:osb="http://www.openswatchbook.org/uri/2009/osb"
   xmlns:dc="http://purl.org/dc/elements/1.1/"
   xmlns:cc="http://creativecommons.org/ns#"
   xmlns:rdf="http://www.w3.org/1999/02/22-rdf-syntax-ns#"
   xmlns:svg="http://www.w3.org/2000/svg"
   xmlns="http://www.w3.org/2000/svg"
   xmlns:sodipodi="http://sodipodi.sourceforge.net/DTD/sodipodi-0.dtd"
   xmlns:inkscape="http://www.inkscape.org/namespaces/inkscape"
   width="512"
   height="512"
   viewBox="0 0 135.46666 135.46666"
   version="1.1"
   id="svg8"
   inkscape:version="0.92.3 (2405546, 2018-03-11)"
   sodipodi:docname="TransportLarge.svg"
   inkscape:export-filename="C:\Users\edkol\Documents\Visual Studio 2017\Projects\FrEee\FrEee\Pictures\Races\Jraenar\Escort.png"
   inkscape:export-xdpi="151.90459"
   inkscape:export-ydpi="151.90459">
  <defs
     id="defs2">
    <linearGradient
       id="linearGradient6233"
       osb:paint="solid">
      <stop
         style="stop-color:#ff0000;stop-opacity:1;"
         offset="0"
         id="stop6231" />
    </linearGradient>
  </defs>
  <sodipodi:namedview
     id="base"
     pagecolor="#000000"
     bordercolor="#666666"
     borderopacity="1.0"
     inkscape:pageopacity="0"
     inkscape:pageshadow="2"
     inkscape:zoom="1.4"
     inkscape:cx="162.92538"
     inkscape:cy="240.80496"
     inkscape:document-units="px"
     inkscape:current-layer="layer1"
     showgrid="false"
     units="px"
     inkscape:window-width="1920"
     inkscape:window-height="1017"
     inkscape:window-x="-8"
     inkscape:window-y="-8"
     inkscape:window-maximized="1" />
  <metadata
     id="metadata5">
    <rdf:RDF>
      <cc:Work
         rdf:about="">
        <dc:format>image/svg+xml</dc:format>
        <dc:type
           rdf:resource="http://purl.org/dc/dcmitype/StillImage" />
        <dc:title></dc:title>
      </cc:Work>
    </rdf:RDF>
  </metadata>
  <g
     inkscape:label="Layer 1"
     inkscape:groupmode="layer"
     id="layer1"
     transform="translate(0,-161.53345)">
    <path
       style="fill:#c0c8c8;fill-opacity:1;stroke:#000000;stroke-width:0.26458332;stroke-miterlimit:4;stroke-dasharray:none;stroke-opacity:1"
       d="m 99.068135,213.64804 c 2e-6,8.92178 -3.253638,26.33134 -15.01787,26.40726 -12.450666,0.0803 -19.946895,-0.20417 -28.568451,-0.20417 -17.24311,0 -18.856501,-8.35951 -18.856497,-26.20309 2e-6,-17.84357 13.978302,-32.30865 31.221408,-32.30865 17.243109,0 31.221406,14.46508 31.22141,32.30865 z"
       id="path3713"
       inkscape:connector-curvature="0"
       sodipodi:nodetypes="ssssss" />
    <rect
       style="fill:#808080;fill-opacity:1;stroke:#00004b;stroke-width:0.26458332;stroke-linecap:round;stroke-linejoin:miter;stroke-miterlimit:4;stroke-dasharray:none;stroke-opacity:1;paint-order:stroke fill markers"
       id="rect831-3"
       width="39.876484"
       height="35.878437"
       x="47.624996"
       y="222.19012"
       rx="0.3000004"
       ry="0.3000004" />
    <ellipse
       style="fill:#ff0000;fill-opacity:1;stroke:#000000;stroke-width:0.26458332;stroke-opacity:1;stroke-miterlimit:4;stroke-dasharray:none"
       id="path4529"
       cx="67.087021"
       cy="212.37607"
       rx="6.8372521"
       ry="6.2751708" />
    <ellipse
       style="fill:#000000;fill-opacity:1;stroke:#000000;stroke-width:0.26458332;stroke-opacity:1;stroke-miterlimit:4;stroke-dasharray:none"
       id="path4533"
       cx="67.412605"
       cy="212.46086"
       rx="1.9535004"
       ry="1.4415934" />
    <rect
       style="fill:#c0c8c8;fill-opacity:1;stroke:#000000;stroke-width:0.26458332;stroke-miterlimit:4;stroke-dasharray:none;stroke-opacity:1"
       id="rect4552"
       width="12.889807"
       height="38.757881"
       x="37.595585"
       y="246.93768" />
    <path
       style="fill:#ff0000;fill-opacity:1;stroke:#000000;stroke-width:0.26458332;stroke-miterlimit:4;stroke-dasharray:none;stroke-opacity:1"
       d="m 50.485396,246.93769 c 10e-7,2.74571 -2.409085,1.72483 -6.138003,1.72483 -3.728919,0 -7.365605,1.02088 -7.365604,-1.72483 -10e-7,-2.74571 3.022883,-4.97157 6.751803,-4.97157 3.72892,0 6.751805,2.22586 6.751804,4.97157 z"
       id="path4556"
       inkscape:connector-curvature="0"
       sodipodi:nodetypes="cscsc" />
    <rect
       style="fill:#c0c8c8;fill-opacity:1;stroke:#000000;stroke-width:0.26458332;stroke-miterlimit:4;stroke-dasharray:none;stroke-opacity:1"
       id="rect4552-0"
       width="12.889807"
       height="38.757877"
       x="85.357239"
       y="247.02327" />
    <path
       style="fill:#ff0000;fill-opacity:1;stroke:#000000;stroke-width:0.26458332;stroke-miterlimit:4;stroke-dasharray:none;stroke-opacity:1"
       d="m 98.952673,247.02327 c 0,2.74571 -2.40908,1.72483 -6.138003,1.72483 -3.728919,0 -7.365605,1.02088 -7.365604,-1.72483 -10e-7,-2.74571 3.022883,-4.97157 6.751803,-4.97157 3.728924,0 6.751804,2.22586 6.751804,4.97157 z"
       id="path4556-1"
       inkscape:connector-curvature="0"
       sodipodi:nodetypes="cscsc" />
    <rect
       style="fill:#808080;fill-opacity:1;stroke:#00004b;stroke-width:0.26458332;stroke-linecap:round;stroke-linejoin:miter;stroke-miterlimit:4;stroke-dasharray:none;stroke-opacity:1;paint-order:stroke fill markers"
       id="rect831-3-1"
       width="51.821358"
       height="35.878437"
       x="41.700996"
       y="257.79559"
       rx="0.3000004"
       ry="0.3000004" />
    <rect
       style="fill:#c0c8c8;fill-opacity:1;stroke:#000000;stroke-width:0.26458332;stroke-miterlimit:4;stroke-dasharray:none;stroke-opacity:1"
       id="rect4552-9"
       width="12.889807"
       height="38.757881"
       x="46.735493"
       y="236.40791" />
    <path
       style="fill:#ff0000;fill-opacity:1;stroke:#000000;stroke-width:0.26458332;stroke-miterlimit:4;stroke-dasharray:none;stroke-opacity:1"
       d="m 59.625305,236.40791 c 0,2.74571 -2.409086,1.72483 -6.138004,1.72483 -3.728918,0 -7.365604,1.02088 -7.365603,-1.72483 -1e-6,-2.74571 3.022883,-4.97157 6.751802,-4.97157 3.728921,0 6.751805,2.22586 6.751805,4.97157 z"
       id="path4556-0"
       inkscape:connector-curvature="0"
       sodipodi:nodetypes="cscsc" />
    <rect
       style="fill:#c0c8c8;fill-opacity:1;stroke:#000000;stroke-width:0.26458332;stroke-miterlimit:4;stroke-dasharray:none;stroke-opacity:1"
       id="rect4552-0-4"
       width="12.889807"
       height="38.757874"
       x="75.976318"
       y="236.4935" />
    <path
       style="fill:#ff0000;fill-opacity:1;stroke:#000000;stroke-width:0.26458332;stroke-miterlimit:4;stroke-dasharray:none;stroke-opacity:1"
       d="m 89.57175,236.49349 c 0,2.74571 -2.40908,1.72483 -6.138,1.72483 -3.72892,0 -7.36561,1.02088 -7.36561,-1.72483 0,-2.74571 3.02289,-4.97157 6.7518,-4.97157 3.72893,0 6.75181,2.22586 6.75181,4.97157 z"
       id="path4556-1-7"
       inkscape:connector-curvature="0"
       sodipodi:nodetypes="cscsc" />
  </g>
</svg>
