<?xml version="1.0" encoding="UTF-8" standalone="no"?>
<!-- Created with Inkscape (http://www.inkscape.org/) -->

<svg
   xmlns:osb="http://www.openswatchbook.org/uri/2009/osb"
   xmlns:dc="http://purl.org/dc/elements/1.1/"
   xmlns:cc="http://creativecommons.org/ns#"
   xmlns:rdf="http://www.w3.org/1999/02/22-rdf-syntax-ns#"
   xmlns:svg="http://www.w3.org/2000/svg"
   xmlns="http://www.w3.org/2000/svg"
   xmlns:sodipodi="http://sodipodi.sourceforge.net/DTD/sodipodi-0.dtd"
   xmlns:inkscape="http://www.inkscape.org/namespaces/inkscape"
   width="512"
   height="512"
   viewBox="0 0 135.46666 135.46666"
   version="1.1"
   id="svg8"
   inkscape:version="0.92.3 (2405546, 2018-03-11)"
   sodipodi:docname="Dreadnought.svg"
   inkscape:export-filename="C:\Users\edkol\Documents\Visual Studio 2017\Projects\FrEee\FrEee\Pictures\Races\Jraenar\Escort.png"
   inkscape:export-xdpi="151.90459"
   inkscape:export-ydpi="151.90459">
  <defs
     id="defs2">
    <inkscape:perspective
       sodipodi:type="inkscape:persp3d"
       inkscape:vp_x="0 : 67.73333 : 1"
       inkscape:vp_y="0 : 1000 : 0"
       inkscape:vp_z="135.46666 : 67.73333 : 1"
       inkscape:persp3d-origin="67.73333 : 45.155553 : 1"
       id="perspective6293" />
    <linearGradient
       id="linearGradient6233"
       osb:paint="solid">
      <stop
         style="stop-color:#ff0000;stop-opacity:1;"
         offset="0"
         id="stop6231" />
    </linearGradient>
  </defs>
  <sodipodi:namedview
     id="base"
     pagecolor="#000000"
     bordercolor="#666666"
     borderopacity="1.0"
     inkscape:pageopacity="0"
     inkscape:pageshadow="2"
     inkscape:zoom="1.4"
     inkscape:cx="40.250171"
     inkscape:cy="245.46718"
     inkscape:document-units="px"
     inkscape:current-layer="layer1"
     showgrid="false"
     units="px"
     inkscape:window-width="1920"
     inkscape:window-height="1017"
     inkscape:window-x="-8"
     inkscape:window-y="-8"
     inkscape:window-maximized="1" />
  <metadata
     id="metadata5">
    <rdf:RDF>
      <cc:Work
         rdf:about="">
        <dc:format>image/svg+xml</dc:format>
        <dc:type
           rdf:resource="http://purl.org/dc/dcmitype/StillImage" />
        <dc:title />
      </cc:Work>
    </rdf:RDF>
  </metadata>
  <g
     inkscape:label="Layer 1"
     inkscape:groupmode="layer"
     id="layer1"
     transform="translate(0,-161.53345)">
    <ellipse
       style="fill:#c0c0c0;fill-opacity:1;stroke:#000000;stroke-width:0.26458332;stroke-opacity:1;stroke-miterlimit:4;stroke-dasharray:none"
       id="path6357"
       cx="67.752228"
       cy="201.9391"
       rx="2.173363"
       ry="22.300594" />
    <path
       style="fill:#808080;fill-opacity:1;stroke:#000000;stroke-width:0.26458332;stroke-opacity:1;stroke-miterlimit:4;stroke-dasharray:none"
       d="m 56.696426,235.01202 h 21.733632 l 2.834821,13.04018 6.425595,41.57738 -39.876488,-0.37797 5.291666,-41.19941 z"
       id="rect6314"
       inkscape:connector-curvature="0"
       sodipodi:nodetypes="ccccccc" />
    <path
       style="fill:#c0c8c8;fill-opacity:1;stroke:#000000;stroke-width:1;stroke-opacity:1;stroke-miterlimit:4;stroke-dasharray:none"
       d="m 256.42773,42.714844 c -45.76073,0 -82.85546,62.587006 -82.85546,139.792966 -2e-5,77.20604 4.28027,113.37696 50.04101,113.37696 22.88038,0 42.77412,1.23015 75.81641,0.88281 31.22059,-0.32848 39.85547,-75.65677 39.85547,-114.25977 -2e-5,-77.20596 -37.09668,-139.792966 -82.85743,-139.792966 z m 0.35826,45.713727 c 9.66502,0 57.50006,49.590939 57.5,101.071979 -1.4e-4,51.48029 -47.83512,-3.21568 -57.5,-3.21568 -9.66488,0 -57.49986,53.26739 -57.5,1.78711 -6e-5,-51.48104 47.83498,-99.643409 57.5,-99.643409 z"
       transform="matrix(0.26458332,0,0,0.26458332,0,161.53345)"
       id="path3713"
       inkscape:connector-curvature="0"
       sodipodi:nodetypes="ssscssscscs" />
    <ellipse
       style="fill:#ff0000;fill-opacity:1;stroke:#000000;stroke-width:0.26458332;stroke-opacity:1;stroke-miterlimit:4;stroke-dasharray:none"
       id="path4529"
       cx="67.276009"
       cy="210.10822"
       rx="6.8372521"
       ry="9.2989798" />
    <ellipse
       style="fill:#000000;fill-opacity:1;stroke:#000000;stroke-width:0.26458332;stroke-opacity:1;stroke-miterlimit:4;stroke-dasharray:none"
       id="path4533"
       cx="67.601593"
       cy="210.23386"
       rx="1.9535004"
       ry="2.1362524" />
    <rect
       style="fill:#c0c8c8;fill-opacity:1;stroke:#000000;stroke-width:0.26458332;stroke-opacity:1;stroke-miterlimit:4;stroke-dasharray:none"
       id="rect4552-4"
       width="11.31227"
       height="47.781666"
       x="32.486275"
       y="244.771" />
    <path
       style="fill:#ff0000;fill-opacity:1;stroke:#000000;stroke-width:0.26458332;stroke-opacity:1;stroke-miterlimit:4;stroke-dasharray:none"
       d="m 43.798546,244.771 c 10e-7,3.38498 -2.114245,2.12642 -5.386795,2.12642 -3.27255,0 -6.464156,1.25856 -6.464154,-2.12642 -2e-6,-3.38497 2.652923,-6.12907 5.925474,-6.12907 3.272551,0 5.925476,2.7441 5.925475,6.12907 z"
       id="path4556-8"
       inkscape:connector-curvature="0"
       sodipodi:nodetypes="cscsc" />
    <rect
       style="fill:#c0c8c8;fill-opacity:1;stroke:#000000;stroke-width:0.26458332;stroke-opacity:1;stroke-miterlimit:4;stroke-dasharray:none"
       id="rect4552-0-0"
       width="11.31227"
       height="47.781654"
       x="92.759262"
       y="244.64354" />
    <path
       style="fill:#ff0000;fill-opacity:1;stroke:#000000;stroke-width:0.26458332;stroke-opacity:1;stroke-miterlimit:4;stroke-dasharray:none"
       d="m 104.07153,244.64354 c 0,3.38498 -2.11425,2.12642 -5.386799,2.12642 -3.272548,0 -6.464153,1.25856 -6.464153,-2.12642 0,-3.38497 2.652924,-6.12907 5.925475,-6.12907 3.272557,0 5.925477,2.7441 5.925477,6.12907 z"
       id="path4556-1-1"
       inkscape:connector-curvature="0"
       sodipodi:nodetypes="cscsc" />
    <ellipse
       style="fill:#ff0000;fill-opacity:1;stroke:#000000;stroke-width:0.26458332;stroke-opacity:1;stroke-miterlimit:4;stroke-dasharray:none"
       id="path6297"
       cx="66.901779"
       cy="250.13106"
       rx="4.7247024"
       ry="5.2916665" />
    <ellipse
       style="fill:#000000;fill-opacity:1;stroke:#000000;stroke-width:0.26458332;stroke-opacity:1;stroke-miterlimit:4;stroke-dasharray:none"
       id="path4533-1"
       cx="67.090767"
       cy="249.94208"
       rx="1.9535004"
       ry="2.1362524" />
    <rect
       style="fill:#c0c0c0;fill-opacity:1;stroke:#000000;stroke-width:0.26458332;stroke-opacity:1;stroke-miterlimit:4;stroke-dasharray:none"
       id="rect6316"
       width="55.751484"
       height="21.733631"
       x="38.364582"
       y="255.61172" />
    <ellipse
       style="fill:#ff0000;fill-opacity:1;stroke:#000000;stroke-width:0.26458332;stroke-opacity:1;stroke-miterlimit:4;stroke-dasharray:none"
       id="path4529-4"
       ry="9.2989798"
       rx="10.522519"
       cy="266.95102"
       cx="67.752228" />
    <ellipse
       style="fill:#000000;fill-opacity:1;stroke:#000000;stroke-width:0.26458332;stroke-opacity:1;stroke-miterlimit:4;stroke-dasharray:none"
       id="path4533-2"
       cx="68.361298"
       cy="267.07666"
       rx="1.9535004"
       ry="2.1362524" />
    <rect
       style="fill:#c0c8c8;fill-opacity:1;stroke:#000000;stroke-width:0.26458332;stroke-opacity:1;stroke-miterlimit:4;stroke-dasharray:none"
       id="rect4552-4-9"
       width="11.31227"
       height="47.781666"
       x="62.270939"
       y="231.19464" />
    <path
       style="fill:#ff0000;fill-opacity:1;stroke:#000000;stroke-width:0.26458332;stroke-opacity:1;stroke-miterlimit:4;stroke-dasharray:none"
       d="m 73.58321,231.19464 c 1e-6,3.38498 -2.114245,2.12642 -5.386795,2.12642 -3.27255,0 -6.464156,1.25856 -6.464154,-2.12642 -2e-6,-3.38497 2.652923,-6.12907 5.925474,-6.12907 3.272551,0 5.925476,2.7441 5.925475,6.12907 z"
       id="path4556-8-4"
       inkscape:connector-curvature="0"
       sodipodi:nodetypes="cscsc" />
  </g>
</svg>
